#!OML:ASF F:\VICON\USERDATA\INSTALL\rory3\rory3.ASF
:FULLY-SPECIFIED
:DEGREES
97
root 0.5622377783890147 17.889733040337866 37.692633462041684 2.3808407106955003 1.1934976224310794 -1.5667956723940784
lfemur -25.30593827252665 0.7460066004360574 -19.573495889254765
ltibia 44.57191380782913
lfoot 4.108114085956617 -11.199807458511659
ltoes -7.8821624161078265
rfemur -8.763743034747423 5.049224776060545 31.031740200882815
rtibia 50.24679581693712
rfoot -1.5333215410352672 -7.1770898365850915
rtoes -3.5102043217555057
lowerback 12.645510645857152 1.0771817546630897 3.4724950588786325
upperback -0.7766403479996732 3.02036692446131 1.6060733022417844
thorax -8.09875619098687 1.6683258427510945 -0.24207071051985138
lowerneck -18.39507834452794 -4.536346477542711 -2.268575623101385
upperneck 13.68248803268875 -6.138568556267225 3.0495964738789434
head 7.395184692338266 -2.584636649814175 0.6391533469227575
lclavicle 3.0724827264545893e-16 -4.3067221206564905e-16
lhumerus -51.206764871255814 -13.068497029144979 98.29026216551222
lradius 109.23687780160483
lwrist 32.055783439315356
lhand -25.795871373974997 3.0849753775193016
lfingers 7.125020000000001
lthumb 0.5954164452181259 32.837933316508675
rclavicle 3.0728743657241976e-16 -4.3064985682852227e-16
rhumerus -37.06774152580412 9.233697691651306 -95.06476892960565
rradius 104.09398616386213
rwrist -19.315101801631492
rhand -18.49667727641048 37.48872734745925
rfingers 7.125020000000001
rthumb 7.940005303736527 7.473919096605166
98
root 0.5606355397554503 17.901218627574075 36.569517705639626 2.262763109551541 1.1795977890410576 -1.622886715104647
lfemur -23.034845805203894 0.6430593178094878 -19.258508624751773
ltibia 43.23874704083538
lfoot 3.585986796006063 -11.567580826711549
ltoes -7.846889745852239
rfemur -11.028093075366993 4.63064320618053 30.10727668672185
rtibia 49.9699439469216
rfoot -1.1443014727591994 -7.0130422549682105
rtoes -4.510187831846073
lowerback 12.516926872071261 1.0898555252141122 3.3552197967820767
upperback -0.8617738684851739 2.8806093740473724 1.4209270781253827
thorax -8.200723631610478 1.541256968598082 -0.5108389211136942
lowerneck -18.363134107920565 -4.593128058962023 -2.3040877477734067
upperneck 13.654118288310856 -6.188200972149598 3.049787862393097
head 7.381925747333004 -2.633211162132842 0.6309867048012072
lclavicle 3.0724827264545893e-16 -4.3067221206564905e-16
lhumerus -51.28305152682712 -13.05843625868491 98.2439296001308
lradius 109.02996246238985
lwrist 32.16648132879294
lhand -25.772797346918413 3.1745377336059306
lfingers 7.125020000000001
lthumb 0.6709694461950197 32.856061934007144
rclavicle 3.0728743657241976e-16 -4.3064985682852227e-16
rhumerus -36.723356946216036 9.605316346130722 -95.04231416893565
rradius 104.02119329633034
rwrist -19.30587976672643
rhand -18.48565453350659 37.52000648532106
rfingers 7.125020000000001
rthumb 7.956405126976328 7.459001557930149
99
root 0.5753149389006535 17.953834575264068 38.04885058450545 2.3027069684623864 1.5450375778469438 -1.4189268997710742
lfemur -24.76980177162528 -0.002514817492941135 -20.298617903181224
ltibia 42.3579395440744
lfoot 3.0130574070729343 -10.867157244870757
ltoes -8.038808642126725
rfemur -9.948704405607643 4.599788890061658 30.308051752015334
rtibia 50.02640419873367
rfoot -0.696157829891444 -6.800602713303994
rtoes -4.908439683784559
lowerback 12.485086990140008 1.101073530905569 3.2074768986668256
upperback -0.9041815401762392 2.8120982187751227 1.311973764406895
thorax -8.098582168429438 1.5654092443713 -0.35427151270540536
lowerneck -18.329360179649644 -4.603147676730182 -2.3000762643179073
upperneck 13.670856046693384 -6.186975178863223 3.1022894664233465
head 7.368605328007018 -2.680325483060502 0.6245555416423108
lclavicle 3.0724827264545893e-16 -4.3067221206564905e-16
lhumerus -51.08924895629461 -13.122554243936568 98.19046121533378
lradius 108.96551852333738
lwrist 32.32686173575415
lhand -25.88871366828335 3.0234582547180193
lfingers 7.125020000000001
lthumb 0.7174674669194774 32.828425941647076
rclavicle 3.0728743657241976e-16 -4.3064985682852227e-16
rhumerus -36.668236425048825 9.912367027185542 -95.07270859435633
rradius 104.02691927780091
rwrist -19.27787525323143
rhand -18.51504290211933 37.49993115565339
rfingers 7.125020000000001
rthumb 7.9684610008017716 7.442394553171795
100
root 0.5669407647662026 17.938607436938547 37.05772972276485 2.1485888045221193 1.506263302217249 -1.4662545882109326
lfemur -22.013519167959778 0.08848990908187548 -19.99005698581626
ltibia 42.29543396945721
lfoot 2.134136909017078 -10.10538162668447
ltoes -8.436198721796824
rfemur -10.613268387179398 4.1190563434499 29.324171349379412
rtibia 50.54714250195184
rfoot -0.2558433979585675 -6.748587776129048
rtoes -4.56332746459257
lowerback 12.536303902422596 1.1255457556505772 3.034124333513095
upperback -0.9052987221555976 2.8692959722103044 1.2778111493626227
thorax -8.246447797208928 1.3076090638007427 -0.7265492808204925
lowerneck -18.234625017360386 -4.524868881816485 -2.281333007788451
upperneck 13.68540647725869 -6.165673110899813 3.1764385183816715
head 7.3641923361481565 -2.7137574320797344 0.6283187096477559
lclavicle 3.0724827264545893e-16 -4.3067221206564905e-16
lhumerus -50.14849951605467 -13.257131837469393 98.21619864132992
lradius 108.91952331952297
lwrist 32.35590335236642
lhand -25.866472169319298 3.074576185064725
lfingers 7.125020000000001
lthumb 0.7501627871819115 32.80035797355884
rclavicle 3.0728743657241976e-16 -4.3064985682852227e-16
rhumerus -36.878834058651535 10.142718734516011 -95.16056681720805
rradius 103.936334388529
rwrist -19.342318942078332
rhand -18.519956849751594 37.4613562144213
rfingers 7.125020000000001
rthumb 7.9545291402304485 7.405163730668091
101
root 0.57641349984434 17.966028715041173 38.93560462646199 2.11339507886841 1.8674053424022765 -1.1964874352745973
lfemur -22.351254423376677 -0.10445767151105068 -20.589061076399428
ltibia 42.811812185941065
lfoot 2.3303772574593906 -9.38337959975628
ltoes -8.364943396092698
rfemur -10.826524164414707 3.988415117759342 29.168208218210086
rtibia 51.18398990963024
rfoot 0.536310907562935 -6.721839613881535
rtoes -4.285259441268515
lowerback 12.58832679781367 1.1093057888588684 2.7341685802812616
upperback -0.9033253418659022 2.8281853733629467 1.2216835077305224
thorax -8.104030231872175 1.4111094524000007 -0.3183615952658343
lowerneck -18.21335318111499 -4.470199028534656 -2.2821821604703967
upperneck 13.664084067912706 -6.136803577279579 3.2432010778270697
head 7.36707910158158 -2.726712609347421 0.6391554371450012
lclavicle 3.0724827264545893e-16 -4.3067221206564905e-16
lhumerus -48.95304225292274 -13.428431626758295 98.18046897672612
lradius 108.97308468079478
lwrist 32.31984533481438
lhand -25.899211576192958 2.9913133385061594
lfingers 7.125020000000001
lthumb 0.7659871201219449 32.85904084989054
rclavicle 3.0728743657241976e-16 -4.3064985682852227e-16
rhumerus -37.28901885837869 10.294120965226695 -95.30395806754169
rradius 103.80435323011487
rwrist -19.37334898399853
rhand -18.51225104065712 37.47489739083533
rfingers 7.125020000000001
rthumb 7.98146436382377 7.447812349651699
102
root 0.5528355251454147 17.89328574931766 37.44295561436437 1.8159786730497476 1.6986363668837074 -1.240021389264383
lfemur -19.668866537685652 0.04209862385982366 -20.55889840264601
ltibia 43.34455796038276
lfoot 1.804831136449081 -9.772778799982044
ltoes -8.414731215776559
rfemur -11.349489297951983 3.815960256373616 28.732980310768546
rtibia 51.957904869965056
rfoot 1.3135414053756023 -6.683549872435847
rtoes -3.7750097406589904
lowerback 12.609355585252437 1.0164798738089467 2.246674780915155
upperback -0.8559679211806467 2.7970540093711134 1.194708498337818
thorax -8.206395599088104 1.279077014499598 -0.3536882225698885
lowerneck -18.224579198591996 -4.40607011492983 -2.278951661975141
upperneck 13.65051239065904 -6.083359288286764 3.302463246947462
head 7.378562428211482 -2.7038629619220167 0.664585716717657
lclavicle 3.0724827264545893e-16 -4.3067221206564905e-16
lhumerus -48.85379456945091 -14.07194150220947 98.04317718178666
lradius 109.0789159374834
lwrist 32.20006969858056
lhand -25.864670736387048 3.052833841584647
lfingers 7.125020000000001
lthumb 0.7877256127388175 32.916105105918
rclavicle 3.0728743657241976e-16 -4.3064985682852227e-16
rhumerus -37.57224935175432 10.434321784371472 -95.4599443644003
rradius 103.5741329362892
rwrist -19.371130470288232
rhand -18.483405673743846 37.49170423368043
rfingers 7.125020000000001
rthumb 7.952197894055657 7.399044897313342
